<svg xmlns="http://www.w3.org/2000/svg" width="32" height="32" viewBox="0 0 32 32">
  <defs>
    <linearGradient id="logoGradient" x1="0%" y1="0%" x2="100%" y2="100%">
      <stop offset="0%" stop-color="#3f51b5" />
      <stop offset="100%" stop-color="#7683d2" />
    </linearGradient>
  </defs>
  <g>
    <circle cx="16" cy="16" r="16" fill="url(#logoGradient)" />
    
    <!-- Org chart lines -->
    <path d="M16 8 L16 11 L10 11 L10 14" stroke="white" stroke-width="1.5" stroke-linecap="round" />
    <path d="M16 8 L16 11 L22 11 L22 14" stroke="white" stroke-width="1.5" stroke-linecap="round" />
    
    <path d="M10 18 L10 21 L6 21 L6 24" stroke="white" stroke-width="1" stroke-linecap="round" />
    <path d="M10 18 L10 21 L14 21 L14 24" stroke="white" stroke-width="1" stroke-linecap="round" />
    
    <path d="M22 18 L22 21 L18 21 L18 24" stroke="white" stroke-width="1" stroke-linecap="round" />
    <path d="M22 18 L22 21 L26 21 L26 24" stroke="white" stroke-width="1" stroke-linecap="round" />
    
    <!-- Nodes -->
    <circle cx="16" cy="7" r="3" fill="white" />
    <circle cx="10" cy="16" r="2.5" fill="white" />
    <circle cx="22" cy="16" r="2.5" fill="white" />
    <circle cx="6" cy="26" r="2" fill="white" />
    <circle cx="14" cy="26" r="2" fill="white" />
    <circle cx="18" cy="26" r="2" fill="white" />
    <circle cx="26" cy="26" r="2" fill="white" />
  </g>
</svg>
